<svg width="139" height="139" viewBox="0 0 139 139" fill="none" xmlns="http://www.w3.org/2000/svg">
<path d="M72 52.4312V102.931H65L65 52.4312H72Z" fill="#57BABB"/>
<path d="M43 106.931C43 104.544 45.7393 102.255 50.6152 100.567C55.4912 98.8794 62.1044 97.9312 69 97.9312C75.8956 97.9312 82.5088 98.8794 87.3848 100.567C92.2607 102.255 95 104.544 95 106.931H43Z" fill="#57BABB"/>
<path d="M101.373 32.167C101.349 38.8221 97.9608 45.1925 91.9546 49.8767C85.9484 54.5609 77.8158 57.1753 69.3457 57.1447C60.8757 57.1141 52.7622 54.441 46.7899 49.7135C40.8177 44.986 37.4761 38.5914 37.5001 31.9363L61.032 49.6559L77.0001 49.7135L101.373 32.167Z" fill="#57BABB"/>
<path d="M62 31.9313H76V44.9313H62V31.9313Z" fill="#E02424"/>
<path d="M76 44.9313V31.9313L94 31.9313L76 44.9313Z" fill="#E02424"/>
<path d="M62 44.9313V31.9313L45 31.9313L62 44.9313Z" fill="#E02424"/>
</svg>
