<svg width="92" height="54" viewBox="0 0 92 54" fill="none" xmlns="http://www.w3.org/2000/svg">
<rect width="92" height="54" fill="#78C800"/>
<path d="M4 26.5002L46 4.00024L46 50.0002L4 26.5002Z" fill="#FFC800"/>
<path d="M88 27.5L46 50L46 4L88 27.5Z" fill="#FFC800"/>
<mask id="mask0" mask-type="alpha" maskUnits="userSpaceOnUse" x="30" y="11" width="32" height="32">
<path d="M62 27C62 35.8366 54.8366 43 46 43C37.1634 43 30 35.8366 30 27C30 18.1634 37.1634 11 46 11C54.8366 11 62 18.1634 62 27Z" fill="#1CB0F6"/>
</mask>
<g mask="url(#mask0)">
<path d="M62 27C62 35.8366 54.8366 43 46 43C37.1634 43 30 35.8366 30 27C30 18.1634 37.1634 11 46 11C54.8366 11 62 18.1634 62 27Z" fill="#1CB0F6"/>
<path d="M29 29.684L30.4696 20L63.3175 27.2258L61.8479 36.9097L29 29.684Z" fill="white"/>
</g>
</svg>
