<?xml version="1.0" encoding="utf-8"?>
<!-- Generator: Adobe Illustrator 23.0.1, SVG Export Plug-In . SVG Version: 6.00 Build 0)  -->
<svg version="1.1" id="Layer_1" xmlns="http://www.w3.org/2000/svg" xmlns:xlink="http://www.w3.org/1999/xlink" x="0px" y="0px"
	 viewBox="0 0 63.9 75" style="enable-background:new 0 0 63.9 75;" xml:space="preserve">
<style type="text/css">
	.st0{fill:#57BABB;}
	.st1{fill:#E02424;}
</style>
<path class="st0" d="M34.5,20.5V71h-7V20.5H34.5z"/>
<path class="st0" d="M5.5,75c0-2.4,2.7-4.7,7.6-6.4C18,66.9,24.6,66,31.5,66s13.5,0.9,18.4,2.6c4.9,1.7,7.6,4,7.6,6.4H5.5z"/>
<path class="st0" d="M63.9,0.2c0,6.7-3.4,13-9.4,17.7c-6,4.7-14.1,7.3-22.6,7.3c-8.5,0-16.6-2.7-22.6-7.4C3.3,13.1,0,6.7,0,0
	l23.5,17.7l16,0.1L63.9,0.2z"/>
<path class="st1" d="M24.5,0h14v13h-14V0z M38.5,13V0h18L38.5,13z M24.5,13V0h-17L24.5,13z"/>
</svg>
