<svg width="40" height="40" viewBox="0 0 40 40" fill="#afafaf" xmlns="http://www.w3.org/2000/svg">
<path style="fill:#afafaf;" d="M31.6667 6.44444V30.5556H8.33333V6.44444H31.6667ZM33.5 3H6.5C5.66667 3 5 3.68889 5 4.55V32.45C5 33.1389 5.66667 34 6.5 34H33.5C34.1667 34 35 33.1389 35 32.45V4.55C35 3.68889 34.1667 3 33.5 3ZM18.3333 9.88889H28.3333V13.3333H18.3333V9.88889ZM18.3333 16.7778H28.3333V20.2222H18.3333V16.7778ZM18.3333 23.6667H28.3333V27.1111H18.3333V23.6667ZM11.6667 9.88889H15V13.3333H11.6667V9.88889ZM11.6667 16.7778H15V20.2222H11.6667V16.7778ZM11.6667 23.6667H15V27.1111H11.6667V23.6667Z" fill="#C4C4C4"/>
</svg>
