<svg width="30" height="31" viewBox="0 0 30 31" fill="none" xmlns="http://www.w3.org/2000/svg">
<path d="M26.6667 3.44444V27.5556H3.33333V3.44444H26.6667ZM28.5 0H1.5C0.666667 0 0 0.688889 0 1.55V29.45C0 30.1389 0.666667 31 1.5 31H28.5C29.1667 31 30 30.1389 30 29.45V1.55C30 0.688889 29.1667 0 28.5 0ZM13.3333 6.88889H23.3333V10.3333H13.3333V6.88889ZM13.3333 13.7778H23.3333V17.2222H13.3333V13.7778ZM13.3333 20.6667H23.3333V24.1111H13.3333V20.6667ZM6.66667 6.88889H10V10.3333H6.66667V6.88889ZM6.66667 13.7778H10V17.2222H6.66667V13.7778ZM6.66667 20.6667H10V24.1111H6.66667V20.6667Z" fill="#AFAFAF"/>
</svg>
